<?xml version="1.0" encoding="UTF-8"?>
<svg version="1.1" xmlns="http://www.w3.org/2000/svg" width="64" height="64">
<path d="M0 0 C5.77482908 0.16658161 9.49542126 2.15019431 13.578125 6.0703125 C17.46403212 10.55544829 18.65113768 14.2380612 18.27734375 20.1640625 C17.8125 22.375 17.8125 22.375 16 25 C13.8125 26.375 13.8125 26.375 10.8125 26.375 C10.8125 25.385 10.8125 24.395 10.8125 23.375 C11.8025 22.715 12.7925 22.055 13.8125 21.375 C14.84807297 19.66119384 14.84807297 19.66119384 14.8125 17.375 C13.11817374 12.19789199 11.16223139 8.8350136 6.8125 5.375 C2.35672169 3.50412064 2.35672169 3.50412064 -2.28515625 3.9921875 C-4.96246555 5.93832198 -5.21345784 7.77178568 -6.0625 10.9375 C-8.11680556 17.71181715 -11.16012166 23.34762166 -16.1875 28.375 C-13.8775 30.355 -11.5675 32.335 -9.1875 34.375 C-8.7028125 33.90449219 -8.218125 33.43398438 -7.71875 32.94921875 C-2.49052595 28.09300295 2.3598897 24.375 9.8125 24.375 C9.8125 25.365 9.8125 26.355 9.8125 27.375 C9.23242188 27.61734375 8.65234375 27.8596875 8.0546875 28.109375 C-0.69433588 31.75163748 -0.69433588 31.75163748 -7.1875 38.375 C-6.5275 39.035 -5.8675 39.695 -5.1875 40.375 C-3.53238156 46.2114703 -2.24160915 52.53732746 -4.1875 58.375 C-6.61744995 61.70877279 -9.35519533 63.79865115 -13.31030273 65.04272461 C-17.9470023 65.5134978 -20.46762235 64.87559784 -24.34057617 62.18237305 C-27.26150533 59.69257352 -29.96140481 57.00597965 -32.62304688 54.24316406 C-34.30990642 52.50267603 -36.04363118 50.82213912 -37.7890625 49.140625 C-46.91309886 40.07526518 -46.91309886 40.07526518 -47.08984375 33.80859375 C-46.65904413 29.56559849 -44.96343955 26.63226365 -41.9453125 23.65625 C-38.21343833 20.93612838 -34.82604141 21.17736387 -30.40234375 21.7109375 C-22.86669922 22.92220052 -22.86669922 22.92220052 -19.1875 25.375 C-14.4806031 20.56112817 -12.1593361 16.44505297 -10.14453125 10.0234375 C-8.19969233 4.64139347 -6.12142056 0.10536008 0 0 Z M-40.0625 26.625 C-42.49322375 29.19141589 -42.49322375 29.19141589 -42.1875 32.375 C-40.77187589 35.35526128 -39.76116436 37.03743912 -36.8918457 38.72583008 C-33.83407523 40.59052625 -31.62121297 42.7151065 -29.10546875 45.26171875 C-28.64642654 45.72359085 -28.18738434 46.18546295 -27.71443176 46.66133118 C-26.26315086 48.12372138 -24.81901796 49.59294126 -23.375 51.0625 C-22.38653354 52.06100823 -21.39760563 53.05905989 -20.40820312 54.05664062 C-17.99672726 56.49164308 -15.59005043 58.9311959 -13.1875 61.375 C-8.54360982 58.86501925 -8.54360982 58.86501925 -6.1875 54.375 C-6.48732966 49.49609636 -9.00494551 46.95828679 -12.32421875 43.671875 C-12.84127884 43.14861633 -13.35833893 42.62535767 -13.8910675 42.08624268 C-14.98478665 40.98543702 -16.08364693 39.88971859 -17.18725586 38.79882812 C-18.86790861 37.13203291 -20.52319564 35.44267308 -22.17773438 33.75 C-23.24594393 32.68083909 -24.31556083 31.61308203 -25.38671875 30.546875 C-25.87758469 30.04275085 -26.36845062 29.53862671 -26.87419128 29.01922607 C-31.17865166 24.82790819 -34.99638211 22.66021209 -40.0625 26.625 Z M-25.1875 26.375 C-20.20345832 32.40831362 -14.76834697 37.8934171 -9.1875 43.375 C-8.88220799 40.42883938 -8.88220799 40.42883938 -10.44091797 38.74926758 C-11.30160889 37.8930481 -11.30160889 37.8930481 -12.1796875 37.01953125 C-13.11361328 36.08657227 -13.11361328 36.08657227 -14.06640625 35.13476562 C-14.72511719 34.49216797 -15.38382813 33.84957031 -16.0625 33.1875 C-16.71347656 32.53330078 -17.36445313 31.87910156 -18.03515625 31.20507812 C-21.08888256 27.67190328 -21.08888256 27.67190328 -25.1875 26.375 Z M-42.1875 37.375 C-41.1975 38.365 -40.2075 39.355 -39.1875 40.375 C-39.1875 39.385 -39.1875 38.395 -39.1875 37.375 C-40.1775 37.375 -41.1675 37.375 -42.1875 37.375 Z " fill="#000000" transform="translate(46.1875,-0.375)"/>
</svg>
