<?xml version="1.0" encoding="UTF-8"?>
<svg version="1.1" xmlns="http://www.w3.org/2000/svg" width="64" height="64">
    <path d="M0 0 C5.77482908 0.16658161 9.49542126 2.15019431 13.578125 6.0703125 C17.47767541 10.57119545 18.47046655 14.17450104 18.4140625 20.078125 C17.59455577 23.20715071 16.34520851 24.38806033 13.8125 26.375 C11.078125 27.4296875 11.078125 27.4296875 8.0625 28.25 C2.59537763 29.94507593 -2.27533161 32.0601084 -6.1875 36.375 C-6.1875 37.365 -6.1875 38.355 -6.1875 39.375 C-5.8575 39.705 -5.5275 40.035 -5.1875 40.375 C-3.6886521 46.30879512 -2.21483097 52.45699292 -4.1875 58.375 C-6.61744995 61.70877279 -9.35519533 63.79865115 -13.31030273 65.04272461 C-17.9470023 65.5134978 -20.46762235 64.87559784 -24.34057617 62.18237305 C-27.26150533 59.69257352 -29.96140481 57.00597965 -32.62304688 54.24316406 C-34.30990642 52.50267603 -36.04363118 50.82213912 -37.7890625 49.140625 C-46.91309886 40.07526518 -46.91309886 40.07526518 -47.08984375 33.80859375 C-46.65904413 29.56559849 -44.96343955 26.63226365 -41.9453125 23.65625 C-38.21343833 20.93612838 -34.82604141 21.17736387 -30.40234375 21.7109375 C-22.86669922 22.92220052 -22.86669922 22.92220052 -19.1875 25.375 C-14.4806031 20.56112817 -12.1593361 16.44505297 -10.14453125 10.0234375 C-8.19969233 4.64139347 -6.12142056 0.10536008 0 0 Z "
          fill="#0E0B07" transform="translate(46.1875,-0.375)"/>
    <path d="M0 0 C4.76933554 1.23079627 7.85211945 3.82643747 10.43359375 7.90625 C12.0750396 11.56793691 12.59591086 13.59092452 12.05859375 17.53125 C11.39859375 18.52125 10.73859375 19.51125 10.05859375 20.53125 C9.39859375 20.53125 8.73859375 20.53125 8.05859375 20.53125 C7.72859375 21.52125 7.39859375 22.51125 7.05859375 23.53125 C6.25421875 23.428125 5.44984375 23.325 4.62109375 23.21875 C-2.75615416 23.86587701 -8.02697624 28.31897575 -12.94140625 33.53125 C-13.60140625 33.53125 -14.26140625 33.53125 -14.94140625 33.53125 C-16.44921875 32 -16.44921875 32 -18.06640625 30.03125 C-18.60523438 29.3815625 -19.1440625 28.731875 -19.69921875 28.0625 C-20.10914062 27.5571875 -20.5190625 27.051875 -20.94140625 26.53125 C-19.50660066 23.53182308 -17.84955317 20.77281782 -16.06640625 17.96875 C-13.28056771 13.40702412 -11.48281689 8.87441479 -9.8984375 3.78125 C-7.86414631 -1.0014101 -4.61572843 -0.74529193 0 0 Z "
          fill="#D4A688" transform="translate(49.94140625,2.46875)"/>
    <path d="M0 0 C7.93621179 1.86734395 14.52503259 10.93323895 20.125 16.5625 C20.89134766 17.32498047 21.65769531 18.08746094 22.44726562 18.87304688 C23.17494141 19.60201172 23.90261719 20.33097656 24.65234375 21.08203125 C25.308396 21.73921143 25.96444824 22.3963916 26.64038086 23.07348633 C28.70802107 25.31405526 29.15543292 26.50949688 29.5625 29.5625 C29.1875 32.75 29.1875 32.75 26.9375 35.6875 C24.1875 37.75 24.1875 37.75 22.32055664 37.66992188 C19.31761651 36.37484594 17.57863288 34.44066947 15.30859375 32.09375 C14.38755859 31.15402344 13.46652344 30.21429688 12.51757812 29.24609375 C11.55273443 28.24802474 10.58854853 27.24931944 9.625 26.25 C7.73392675 24.29594373 5.83568739 22.34966453 3.93359375 20.40625 C3.09497803 19.53806641 2.2563623 18.66988281 1.39233398 17.77539062 C-0.72725889 15.55124434 -0.72725889 15.55124434 -3.8125 14.75 C-7.8125 9.05769231 -7.8125 9.05769231 -7.8125 5.75 C-5.45777418 2.61036557 -3.82232113 1.01928564 0 0 Z "
          fill="#D5A789" transform="translate(10.8125,23.25)"/>
    <path d="M0 0 C5.84134899 1.37443506 9.93088116 5.86507174 13.1875 10.75 C12.135625 10.976875 11.08375 11.20375 10 11.4375 C6.0277094 12.54360531 3.89150363 14.63629885 1.1875 17.75 C-2.85253897 15.6753854 -4.81756762 13.83961139 -6.8125 9.75 C-7.1425 9.09 -7.4725 8.43 -7.8125 7.75 C-7.8125 5.75 -7.8125 5.75 -5.75 3 C-2.8125 0.75 -2.8125 0.75 0 0 Z "
          fill="#C1835A" transform="translate(10.8125,23.25)"/>
    <path d="M0 0 C2.32507112 0.61033117 3.50479621 1.52251955 4.875 3.4921875 C3.905625 3.9046875 2.93625 4.3171875 1.9375 4.7421875 C-3.94690798 8.06556772 -7.27496044 14.12036545 -11.125 19.4921875 C-16.40765852 26.25307367 -16.40765852 26.25307367 -20.125 27.4921875 C-20.125 23.19641688 -19.87342043 22.75144957 -17.4375 19.5546875 C-14.04295805 14.7510904 -12.18785581 9.75934116 -10.30078125 4.21484375 C-8.01510404 -1.07790382 -4.95041048 -0.74620158 0 0 Z "
          fill="#C0825A" transform="translate(50.125,2.5078125)"/>
    <path d="M0 0 C5.77482908 0.16658161 9.49542126 2.15019431 13.578125 6.0703125 C17.46753256 10.55948852 18.63561206 14.23624115 18.2890625 20.1640625 C17.63564479 23.19549222 16.34001348 24.63733448 13.8125 26.375 C12.8225 26.045 11.8325 25.715 10.8125 25.375 C11.4725 24.67375 12.1325 23.9725 12.8125 23.25 C15.20879605 19.80532443 15.4704947 18.48746686 14.8125 14.375 C12.56364575 8.94026889 10.30284599 6.56387795 5.10546875 3.90625 C2.05274184 3.05352333 2.05274184 3.05352333 -4.1875 4.375 C-6.1675 9.325 -8.1475 14.275 -10.1875 19.375 C-10.8475 19.045 -11.5075 18.715 -12.1875 18.375 C-7.68271858 0.13223268 -7.68271858 0.13223268 0 0 Z "
          fill="#070504" transform="translate(46.1875,-0.375)"/>
    <path d="M0 0 C0 0.66 0 1.32 0 2 C-0.58007812 2.24234375 -1.16015625 2.4846875 -1.7578125 2.734375 C-10.50683588 6.37663748 -10.50683588 6.37663748 -17 13 C-16.34 13.66 -15.68 14.32 -15 15 C-14.3671875 17.4609375 -14.3671875 17.4609375 -13.875 20.375 C-13.70742188 21.33148438 -13.53984375 22.28796875 -13.3671875 23.2734375 C-13 26 -13 26 -13 30 C-13.99 30.33 -14.98 30.66 -16 31 C-16.33951619 29.43883181 -16.67132544 27.87598662 -17 26.3125 C-17.185625 25.44238281 -17.37125 24.57226562 -17.5625 23.67578125 C-18 21 -18 21 -17.96875 18.2734375 C-17.75341663 15.90696053 -17.75341663 15.90696053 -19.5 14.3125 C-20.2425 13.6628125 -20.2425 13.6628125 -21 13 C-21 11 -21 11 -19.53125 9.4140625 C-7.74378585 -0.96797323 -7.74378585 -0.96797323 0 0 Z "
          fill="#090705" transform="translate(56,25)"/>
    <path d="M0 0 C0.66 0 1.32 0 2 0 C2 0.66 2 1.32 2 2 C2.99 2 3.98 2 5 2 C5.89662952 3.34929685 6.78416789 4.70520594 7.63476562 6.08398438 C10.61521158 10.266842 14.57254108 13.68746168 18.25 17.25 C19.90553535 18.85475206 21.55682704 20.46389778 23.203125 22.078125 C23.93176758 22.78356445 24.66041016 23.48900391 25.41113281 24.21582031 C27 26 27 26 27 28 C23.1302057 26.41602335 20.48382802 23.79009848 17.578125 20.87890625 C17.07327576 20.37834213 16.56842651 19.87777802 16.04827881 19.36204529 C14.98683881 18.30633086 13.92798621 17.24800937 12.87158203 16.18725586 C11.25023802 14.56273849 9.61598684 12.95202851 7.98046875 11.34179688 C6.94971105 10.31331093 5.91973535 9.28404054 4.890625 8.25390625 C4.40007629 7.77256729 3.90952759 7.29122833 3.40411377 6.79530334 C0 3.34381447 0 3.34381447 0 0 Z "
          fill="#485055" transform="translate(2,34)"/>
    <path d="M0 0 C6.04455962 0.79519946 8.7448476 4.1156056 12.875 8.3125 C13.926875 9.32860352 13.926875 9.32860352 15 10.36523438 C15.65742187 11.02458984 16.31484375 11.68394531 16.9921875 12.36328125 C17.59401855 12.96438721 18.19584961 13.56549316 18.81591797 14.18481445 C20 16 20 16 19.68798828 18.22729492 C19.46095215 18.8122876 19.23391602 19.39728027 19 20 C15.8293305 16.85817898 12.66414446 13.71089125 9.5 10.5625 C8.59378906 9.66466797 7.68757813 8.76683594 6.75390625 7.84179688 C5.89667969 6.98779297 5.03945313 6.13378906 4.15625 5.25390625 C3.36025391 4.46314697 2.56425781 3.6723877 1.74414062 2.85766602 C0 1 0 1 0 0 Z "
          fill="#E4CA5B" transform="translate(19,25)"/>
    <path d="M0 0 C3.46629835 1.48653506 5.69022036 3.45722351 8.328125 6.1328125 C9.12734375 6.93847656 9.9265625 7.74414062 10.75 8.57421875 C11.575 9.41597656 12.4 10.25773437 13.25 11.125 C14.51070312 12.39923828 14.51070312 12.39923828 15.796875 13.69921875 C17.86915683 15.79504923 19.93662393 17.89540713 22 20 C21.34 20.66 20.68 21.32 20 22 C17.1453424 19.19469153 14.29722769 16.38292304 11.45507812 13.56494141 C10.48681462 12.60675044 9.51676574 11.65036018 8.54492188 10.69580078 C7.1502903 9.3253618 5.76253479 7.94793633 4.375 6.5703125 C3.53710938 5.74289551 2.69921875 4.91547852 1.8359375 4.06298828 C0 2 0 2 0 0 Z "
          fill="#14100E" transform="translate(8,38)"/>
    <path d="M0 0 C0.66 0 1.32 0 2 0 C2 0.66 2 1.32 2 2 C2.99 2 3.98 2 5 2 C6.32 4.31 7.64 6.62 9 9 C4.74822077 8.52758009 2.70030797 6.15035929 0 3 C0 2.01 0 1.02 0 0 Z "
          fill="#403F3F" transform="translate(2,34)"/>
</svg>
